<?xml version="1.0" encoding="UTF-8"?>
<svg width="314px" height="77px" viewBox="0 0 314 77" version="1.1" xmlns="http://www.w3.org/2000/svg" xmlns:xlink="http://www.w3.org/1999/xlink">
    <!-- Generator: Sketch 51.2 (57519) - http://www.bohemiancoding.com/sketch -->
    <title>Logo-ULB</title>
    <desc>Created with Sketch.</desc>
    <defs>
        <polygon id="path-1" points="0 0.0568909091 18.2356595 0.0568909091 18.2356595 20.3633075 0 20.3633075"></polygon>
        <polygon id="path-3" points="0.567730952 0.00254545455 17.390246 0.00254545455 17.390246 19.7264455 0.567730952 19.7264455"></polygon>
        <polygon id="path-5" points="0 0.0568909091 18.2356595 0.0568909091 18.2356595 20.3633075 0 20.3633075"></polygon>
        <polygon id="path-7" points="0.567730952 0.00254545455 17.390246 0.00254545455 17.390246 19.7264455 0.567730952 19.7264455"></polygon>
        <polygon id="path-9" points="0 0.0568909091 18.2356595 0.0568909091 18.2356595 20.3633075 0 20.3633075"></polygon>
        <polygon id="path-11" points="0.567730952 0.00254545455 17.390246 0.00254545455 17.390246 19.7264455 0.567730952 19.7264455"></polygon>
        <polygon id="path-13" points="0 0.0568909091 18.2356595 0.0568909091 18.2356595 20.3633075 0 20.3633075"></polygon>
        <polygon id="path-15" points="0.567730952 0.00254545455 17.390246 0.00254545455 17.390246 19.7264455 0.567730952 19.7264455"></polygon>
    </defs>
    <g id="Logo-ULB" stroke="none" stroke-width="1" fill="none" fill-rule="evenodd">
        <rect fill="#FFFFFF" x="0" y="0" width="314" height="77"></rect>
        <g id="Page-1" transform="translate(10.000000, 36.223633)">
            <polygon id="Fill-1" fill="#F7CB90" points="29.1947976 17.2889818 34.1641786 17.2889818 34.1641786 12.2776182"></polygon>
            <polygon id="Fill-2" fill="#FFFFFE" points="20.0016321 0.636554545 20.0016321 3.59691818 22.349406 3.59691818 22.349406 17.3996455 20.0016321 17.3996455 20.0016321 20.3606455 34.1639893 20.3606455 34.1639893 17.2889182 27.0096202 17.2889182 27.0096202 3.59691818 29.6141917 3.59691818 29.6141917 0.636554545"></polygon>
            <g id="Group-9" transform="translate(0.000000, 0.633945)">
                <g id="Group-5">
                    <mask id="mask-2" fill="white">
                        <use xlink:href="#path-1"></use>
                    </mask>
                    <g id="Clip-4"></g>
                    <path d="M13.6492667,18.9708909 C15.3982667,17.5454364 15.778731,15.9691636 15.777469,13.5878909 L15.7749452,3.02043636 L18.2356595,3.01789091 L18.2356595,0.0568909091 L11.0049452,0.0594363636 L11.0049452,3.02043636 L12.5482548,3.01789091 L12.5482548,14.0868 C12.5482548,15.6395273 11.2951833,16.8938 9.75629048,16.8950727 C7.74418333,16.8969818 6.96937381,15.6369818 6.96937381,14.0848909 L6.96937381,14.0683455 L6.96937381,3.01534545 L8.58587381,3.01789091 L8.71837381,0.0568909091 L0.13237381,0.0568909091 L-0.000126190476,3.01789091 L2.30221905,3.01789091 L2.31168333,13.3422545 C2.31168333,15.4810727 2.35080238,16.7118 3.47263571,18.2778909 C4.47963571,19.6836182 6.23305238,20.3702545 9.03321905,20.3632545 C11.0055762,20.3588 12.5438381,19.8719818 13.6492667,18.9708909" id="Fill-3" fill="#FFFFFE" mask="url(#mask-2)"></path>
                </g>
                <g id="Group-8" transform="translate(35.333333, 0.000000)">
                    <mask id="mask-4" fill="white">
                        <use xlink:href="#path-3"></use>
                    </mask>
                    <g id="Clip-7"></g>
                    <path d="M9.54996905,16.6572636 C11.5431476,16.6477182 12.4479333,15.6556273 12.4536119,13.9005364 C12.4586595,12.0919909 11.2516476,10.8479 9.54239762,10.8421727 L7.6836119,10.8453545 L7.68550476,16.6572636 L9.54996905,16.6572636 Z M9.30705238,7.99380909 C10.8983143,7.99826364 11.7885881,7.04499091 11.7930048,5.51899091 C11.7974214,3.9459 10.7878976,2.96526364 9.30200476,2.96080909 L7.68550476,2.96271818 L7.68550476,7.99571818 L9.30705238,7.99380909 Z M15.1250643,9.81953636 C16.4866595,10.7740818 17.38135,12.3408091 17.3901833,14.2308091 C17.4059571,17.1943545 14.439219,19.7289909 11.7027786,19.7251727 L0.680040476,19.7264455 L0.677516667,16.6553545 L2.91613571,16.6553545 L2.91613571,2.96271818 L0.567730952,2.96271818 L0.567730952,0.00235454545 L11.7217071,0.00235454545 C14.4606714,0.00235454545 16.6835167,2.15899091 16.6835167,4.85271818 C16.6835167,6.07326364 16.0796952,7.51462727 15.1181238,8.4049 L13.8000643,9.23280909 L15.1250643,9.81953636 Z" id="Fill-6" fill="#FFFFFE" mask="url(#mask-4)"></path>
                </g>
            </g>
        </g>
        <g id="Page-1-Copy-2" transform="translate(1.369141, 1.000000)">
            <polygon id="Fill-1" fill="#004D95" points="0 75 75 75 75 0 0 0"></polygon>
            <g id="Page-1" transform="translate(10.000000, 26.000000)">
                <polygon id="Fill-1" fill="#ABAECF" points="29.1947976 17.2889818 34.1641786 17.2889818 34.1641786 12.2776182"></polygon>
                <polygon id="Fill-2" fill="#FFFFFE" points="20.0016321 0.636554545 20.0016321 3.59691818 22.349406 3.59691818 22.349406 17.3996455 20.0016321 17.3996455 20.0016321 20.3606455 34.1639893 20.3606455 34.1639893 17.2889182 27.0096202 17.2889182 27.0096202 3.59691818 29.6141917 3.59691818 29.6141917 0.636554545"></polygon>
                <g id="Group-9" transform="translate(0.000000, 0.633945)">
                    <g id="Group-5">
                        <mask id="mask-6" fill="white">
                            <use xlink:href="#path-5"></use>
                        </mask>
                        <g id="Clip-4"></g>
                        <path d="M13.6492667,18.9708909 C15.3982667,17.5454364 15.778731,15.9691636 15.777469,13.5878909 L15.7749452,3.02043636 L18.2356595,3.01789091 L18.2356595,0.0568909091 L11.0049452,0.0594363636 L11.0049452,3.02043636 L12.5482548,3.01789091 L12.5482548,14.0868 C12.5482548,15.6395273 11.2951833,16.8938 9.75629048,16.8950727 C7.74418333,16.8969818 6.96937381,15.6369818 6.96937381,14.0848909 L6.96937381,14.0683455 L6.96937381,3.01534545 L8.58587381,3.01789091 L8.71837381,0.0568909091 L0.13237381,0.0568909091 L-0.000126190476,3.01789091 L2.30221905,3.01789091 L2.31168333,13.3422545 C2.31168333,15.4810727 2.35080238,16.7118 3.47263571,18.2778909 C4.47963571,19.6836182 6.23305238,20.3702545 9.03321905,20.3632545 C11.0055762,20.3588 12.5438381,19.8719818 13.6492667,18.9708909" id="Fill-3" fill="#FFFFFE" mask="url(#mask-6)"></path>
                    </g>
                    <g id="Group-8" transform="translate(35.333333, 0.000000)">
                        <mask id="mask-8" fill="white">
                            <use xlink:href="#path-7"></use>
                        </mask>
                        <g id="Clip-7"></g>
                        <path d="M9.54996905,16.6572636 C11.5431476,16.6477182 12.4479333,15.6556273 12.4536119,13.9005364 C12.4586595,12.0919909 11.2516476,10.8479 9.54239762,10.8421727 L7.6836119,10.8453545 L7.68550476,16.6572636 L9.54996905,16.6572636 Z M9.30705238,7.99380909 C10.8983143,7.99826364 11.7885881,7.04499091 11.7930048,5.51899091 C11.7974214,3.9459 10.7878976,2.96526364 9.30200476,2.96080909 L7.68550476,2.96271818 L7.68550476,7.99571818 L9.30705238,7.99380909 Z M15.1250643,9.81953636 C16.4866595,10.7740818 17.38135,12.3408091 17.3901833,14.2308091 C17.4059571,17.1943545 14.439219,19.7289909 11.7027786,19.7251727 L0.680040476,19.7264455 L0.677516667,16.6553545 L2.91613571,16.6553545 L2.91613571,2.96271818 L0.567730952,2.96271818 L0.567730952,0.00235454545 L11.7217071,0.00235454545 C14.4606714,0.00235454545 16.6835167,2.15899091 16.6835167,4.85271818 C16.6835167,6.07326364 16.0796952,7.51462727 15.1181238,8.4049 L13.8000643,9.23280909 L15.1250643,9.81953636 Z" id="Fill-6" fill="#FFFFFE" mask="url(#mask-8)"></path>
                    </g>
                </g>
            </g>
        </g>
        <g id="Page-1" transform="translate(10.000000, 36.223633)">
            <polygon id="Fill-1" fill="#F7CB90" points="29.1947976 17.2889818 34.1641786 17.2889818 34.1641786 12.2776182"></polygon>
            <polygon id="Fill-2" fill="#FFFFFE" points="20.0016321 0.636554545 20.0016321 3.59691818 22.349406 3.59691818 22.349406 17.3996455 20.0016321 17.3996455 20.0016321 20.3606455 34.1639893 20.3606455 34.1639893 17.2889182 27.0096202 17.2889182 27.0096202 3.59691818 29.6141917 3.59691818 29.6141917 0.636554545"></polygon>
            <g id="Group-9" transform="translate(0.000000, 0.633945)">
                <g id="Group-5">
                    <mask id="mask-10" fill="white">
                        <use xlink:href="#path-9"></use>
                    </mask>
                    <g id="Clip-4"></g>
                    <path d="M13.6492667,18.9708909 C15.3982667,17.5454364 15.778731,15.9691636 15.777469,13.5878909 L15.7749452,3.02043636 L18.2356595,3.01789091 L18.2356595,0.0568909091 L11.0049452,0.0594363636 L11.0049452,3.02043636 L12.5482548,3.01789091 L12.5482548,14.0868 C12.5482548,15.6395273 11.2951833,16.8938 9.75629048,16.8950727 C7.74418333,16.8969818 6.96937381,15.6369818 6.96937381,14.0848909 L6.96937381,14.0683455 L6.96937381,3.01534545 L8.58587381,3.01789091 L8.71837381,0.0568909091 L0.13237381,0.0568909091 L-0.000126190476,3.01789091 L2.30221905,3.01789091 L2.31168333,13.3422545 C2.31168333,15.4810727 2.35080238,16.7118 3.47263571,18.2778909 C4.47963571,19.6836182 6.23305238,20.3702545 9.03321905,20.3632545 C11.0055762,20.3588 12.5438381,19.8719818 13.6492667,18.9708909" id="Fill-3" fill="#FFFFFE" mask="url(#mask-10)"></path>
                </g>
                <g id="Group-8" transform="translate(35.333333, 0.000000)">
                    <mask id="mask-12" fill="white">
                        <use xlink:href="#path-11"></use>
                    </mask>
                    <g id="Clip-7"></g>
                    <path d="M9.54996905,16.6572636 C11.5431476,16.6477182 12.4479333,15.6556273 12.4536119,13.9005364 C12.4586595,12.0919909 11.2516476,10.8479 9.54239762,10.8421727 L7.6836119,10.8453545 L7.68550476,16.6572636 L9.54996905,16.6572636 Z M9.30705238,7.99380909 C10.8983143,7.99826364 11.7885881,7.04499091 11.7930048,5.51899091 C11.7974214,3.9459 10.7878976,2.96526364 9.30200476,2.96080909 L7.68550476,2.96271818 L7.68550476,7.99571818 L9.30705238,7.99380909 Z M15.1250643,9.81953636 C16.4866595,10.7740818 17.38135,12.3408091 17.3901833,14.2308091 C17.4059571,17.1943545 14.439219,19.7289909 11.7027786,19.7251727 L0.680040476,19.7264455 L0.677516667,16.6553545 L2.91613571,16.6553545 L2.91613571,2.96271818 L0.567730952,2.96271818 L0.567730952,0.00235454545 L11.7217071,0.00235454545 C14.4606714,0.00235454545 16.6835167,2.15899091 16.6835167,4.85271818 C16.6835167,6.07326364 16.0796952,7.51462727 15.1181238,8.4049 L13.8000643,9.23280909 L15.1250643,9.81953636 Z" id="Fill-6" fill="#FFFFFE" mask="url(#mask-12)"></path>
                </g>
            </g>
        </g>
        <g id="Page-1-Copy-2" transform="translate(1.369141, 1.000000)">
            <polygon id="Fill-1" fill="#004D95" points="0 75 75 75 75 0 0 0"></polygon>
            <g id="Page-1" transform="translate(10.000000, 26.000000)">
                <polygon id="Fill-1" fill="#ABAECF" points="29.1947976 17.2889818 34.1641786 17.2889818 34.1641786 12.2776182"></polygon>
                <polygon id="Fill-2" fill="#FFFFFE" points="20.0016321 0.636554545 20.0016321 3.59691818 22.349406 3.59691818 22.349406 17.3996455 20.0016321 17.3996455 20.0016321 20.3606455 34.1639893 20.3606455 34.1639893 17.2889182 27.0096202 17.2889182 27.0096202 3.59691818 29.6141917 3.59691818 29.6141917 0.636554545"></polygon>
                <g id="Group-9" transform="translate(0.000000, 0.633945)">
                    <g id="Group-5">
                        <mask id="mask-14" fill="white">
                            <use xlink:href="#path-13"></use>
                        </mask>
                        <g id="Clip-4"></g>
                        <path d="M13.6492667,18.9708909 C15.3982667,17.5454364 15.778731,15.9691636 15.777469,13.5878909 L15.7749452,3.02043636 L18.2356595,3.01789091 L18.2356595,0.0568909091 L11.0049452,0.0594363636 L11.0049452,3.02043636 L12.5482548,3.01789091 L12.5482548,14.0868 C12.5482548,15.6395273 11.2951833,16.8938 9.75629048,16.8950727 C7.74418333,16.8969818 6.96937381,15.6369818 6.96937381,14.0848909 L6.96937381,14.0683455 L6.96937381,3.01534545 L8.58587381,3.01789091 L8.71837381,0.0568909091 L0.13237381,0.0568909091 L-0.000126190476,3.01789091 L2.30221905,3.01789091 L2.31168333,13.3422545 C2.31168333,15.4810727 2.35080238,16.7118 3.47263571,18.2778909 C4.47963571,19.6836182 6.23305238,20.3702545 9.03321905,20.3632545 C11.0055762,20.3588 12.5438381,19.8719818 13.6492667,18.9708909" id="Fill-3" fill="#FFFFFE" mask="url(#mask-14)"></path>
                    </g>
                    <g id="Group-8" transform="translate(35.333333, 0.000000)">
                        <mask id="mask-16" fill="white">
                            <use xlink:href="#path-15"></use>
                        </mask>
                        <g id="Clip-7"></g>
                        <path d="M9.54996905,16.6572636 C11.5431476,16.6477182 12.4479333,15.6556273 12.4536119,13.9005364 C12.4586595,12.0919909 11.2516476,10.8479 9.54239762,10.8421727 L7.6836119,10.8453545 L7.68550476,16.6572636 L9.54996905,16.6572636 Z M9.30705238,7.99380909 C10.8983143,7.99826364 11.7885881,7.04499091 11.7930048,5.51899091 C11.7974214,3.9459 10.7878976,2.96526364 9.30200476,2.96080909 L7.68550476,2.96271818 L7.68550476,7.99571818 L9.30705238,7.99380909 Z M15.1250643,9.81953636 C16.4866595,10.7740818 17.38135,12.3408091 17.3901833,14.2308091 C17.4059571,17.1943545 14.439219,19.7289909 11.7027786,19.7251727 L0.680040476,19.7264455 L0.677516667,16.6553545 L2.91613571,16.6553545 L2.91613571,2.96271818 L0.567730952,2.96271818 L0.567730952,0.00235454545 L11.7217071,0.00235454545 C14.4606714,0.00235454545 16.6835167,2.15899091 16.6835167,4.85271818 C16.6835167,6.07326364 16.0796952,7.51462727 15.1181238,8.4049 L13.8000643,9.23280909 L15.1250643,9.81953636 Z" id="Fill-6" fill="#FFFFFE" mask="url(#mask-16)"></path>
                    </g>
                </g>
            </g>
        </g>
        <path d="M95.078,16.248 C95.078,18.162 94.968,18.624 94.286,19.46 C93.516,20.406 92.262,21.242 89.93,21.242 C87.642,21.242 86.124,20.516 85.354,19.13 C84.958,18.426 84.87,18.008 84.87,16.424 L84.87,5.842 L87.004,5.842 L87.004,15.632 C87.004,16.732 87.114,18.074 87.554,18.58 C87.972,19.064 88.742,19.438 89.952,19.438 C91.096,19.438 91.932,19.086 92.416,18.448 C92.79,17.964 92.966,17.15 92.966,15.94 L92.966,5.842 L95.078,5.842 L95.078,16.248 Z M111.726,21 L109.46,21 L105.478,12.948 C104.708,11.386 103.916,9.67 103.63,8.79 L103.498,8.812 C103.608,10.11 103.652,11.628 103.674,13.036 L103.762,21 L101.628,21 L101.628,5.842 L104.092,5.842 L108.316,14.202 C108.954,15.456 109.702,17.414 109.812,17.832 L109.944,17.788 C109.9,17.348 109.724,14.95 109.724,13.278 L109.68,5.842 L111.726,5.842 L111.726,21 Z M120.542,21 L118.386,21 L118.386,5.842 L120.542,5.842 L120.542,21 Z M137.718,5.842 L132.57,21.044 L130.502,21.044 L125.442,5.842 L127.774,5.842 L130.678,14.972 C130.854,15.5 131.096,16.314 131.25,16.974 C131.36,17.458 131.448,17.81 131.492,18.118 L131.624,18.118 C131.866,17.128 132.174,16.094 132.548,14.95 L135.518,5.842 L137.718,5.842 Z M151.11,21 L142.618,21 L142.618,5.842 L150.868,5.842 L150.582,7.58 L144.774,7.58 L144.774,12.2 L149.636,12.2 L149.636,13.982 L144.774,13.982 L144.774,19.174 L151.11,19.174 L151.11,21 Z M166.482,21 L163.908,21 C163.468,20.142 163.27,19.79 162.654,18.756 C161.488,16.82 161.114,16.182 160.036,14.972 C159.64,14.532 159.31,14.312 158.672,14.29 L158.672,21 L156.56,21 L156.56,5.842 L160.806,5.842 C162.61,5.842 163.666,6.26 164.392,6.942 C165.074,7.58 165.734,8.592 165.734,10.066 C165.734,12.376 164.282,14.224 161.862,14.224 L161.686,14.224 C162.346,14.774 162.544,15.016 163.006,15.632 C163.314,16.05 163.776,16.71 164.282,17.502 L166.482,21 Z M163.512,10.088 C163.512,9.032 162.94,8.196 162.104,7.866 C161.664,7.69 161.048,7.58 160.256,7.58 L158.672,7.58 L158.672,12.86 L160.146,12.86 C161.488,12.86 162.236,12.64 162.764,12.134 C163.226,11.694 163.512,10.968 163.512,10.088 Z M181.546,16.578 C181.546,18.69 179.808,21.286 175.826,21.286 C174.088,21.286 172.416,20.846 170.942,19.944 L171.778,18.316 C173.098,19.13 174.352,19.57 175.87,19.57 C177.85,19.57 179.148,18.558 179.148,16.93 C179.148,15.698 178.334,14.84 176.64,14.356 L175.056,13.894 C172.768,13.234 171.47,12.134 171.47,9.978 C171.47,7.36 173.494,5.578 176.486,5.578 C178.158,5.578 179.786,6.062 181.128,7.008 L180.182,8.504 C178.774,7.646 177.828,7.316 176.574,7.316 C174.88,7.316 173.824,8.196 173.824,9.604 C173.824,10.682 174.44,11.298 176.068,11.782 L177.85,12.31 C179.874,12.904 181.546,14.224 181.546,16.578 Z M189.372,21 L187.216,21 L187.216,5.842 L189.372,5.842 L189.372,21 Z M204.788,5.842 L204.568,7.602 L200.63,7.602 L200.63,21 L198.54,21 L198.54,7.602 L194.602,7.602 L194.602,5.842 L204.788,5.842 Z M217.63,21 L209.138,21 L209.138,5.842 L217.388,5.842 L217.102,7.58 L211.294,7.58 L211.294,12.2 L216.156,12.2 L216.156,13.982 L211.294,13.982 L211.294,19.174 L217.63,19.174 L217.63,21 Z M216.376,2.85 L211.602,5.094 L210.964,3.906 L215.386,0.98 L216.376,2.85 Z M92.9,45.24 L92.548,47 L84.98,47 L84.98,31.842 L87.136,31.842 L87.136,45.24 L92.9,45.24 Z M100.066,47 L97.91,47 L97.91,31.842 L100.066,31.842 L100.066,47 Z M116.802,42.842 C116.802,44.954 115.504,46.296 113.744,46.758 C113.062,46.934 112.138,47 111.346,47 L106.726,47 L106.726,31.842 L109.938,31.842 C112.49,31.842 113.172,31.908 114.118,32.414 C115.46,33.118 116.164,34.196 116.164,35.582 C116.164,37.166 115.262,38.376 113.414,38.926 C115.702,39.432 116.802,40.862 116.802,42.842 Z M114.47,42.6 C114.47,41.368 113.788,40.356 112.842,40.136 C112.446,40.048 112.006,40.004 111.258,40.004 L108.816,40.004 L108.816,45.284 L111.808,45.284 C113.062,45.284 114.47,44.536 114.47,42.6 Z M113.876,35.934 C113.876,34.878 113.282,34.042 112.402,33.778 C112.05,33.668 111.632,33.624 110.862,33.624 L108.794,33.624 L108.794,38.244 L111.192,38.244 C112.534,38.244 112.996,38.002 113.436,37.408 C113.722,37.012 113.876,36.44 113.876,35.934 Z M132.724,47 L130.15,47 C129.71,46.142 129.512,45.79 128.896,44.756 C127.73,42.82 127.356,42.182 126.278,40.972 C125.882,40.532 125.552,40.312 124.914,40.29 L124.914,47 L122.802,47 L122.802,31.842 L127.048,31.842 C128.852,31.842 129.908,32.26 130.634,32.942 C131.316,33.58 131.976,34.592 131.976,36.066 C131.976,38.376 130.524,40.224 128.104,40.224 L127.928,40.224 C128.588,40.774 128.786,41.016 129.248,41.632 C129.556,42.05 130.018,42.71 130.524,43.502 L132.724,47 Z M129.754,36.088 C129.754,35.032 129.182,34.196 128.346,33.866 C127.906,33.69 127.29,33.58 126.498,33.58 L124.914,33.58 L124.914,38.86 L126.388,38.86 C127.73,38.86 128.478,38.64 129.006,38.134 C129.468,37.694 129.754,36.968 129.754,36.088 Z M146.446,47 L137.954,47 L137.954,31.842 L146.204,31.842 L145.918,33.58 L140.11,33.58 L140.11,38.2 L144.972,38.2 L144.972,39.982 L140.11,39.982 L140.11,45.174 L146.446,45.174 L146.446,47 Z M95.518,65.432 C95.518,67.896 94.88,69.7 93.868,70.954 C92.812,72.274 91.404,73 88.764,73 L84.98,73 L84.98,57.842 L88.5,57.842 C91.118,57.842 92.79,58.436 94.176,60.35 C95.078,61.604 95.518,63.342 95.518,65.432 Z M93.164,65.696 C93.164,63.584 92.944,62.022 92.042,60.878 C91.206,59.822 90.326,59.536 88.852,59.536 L87.136,59.536 L87.136,71.262 L88.808,71.262 C90.546,71.262 91.668,70.8 92.35,69.568 C92.9,68.556 93.164,67.192 93.164,65.696 Z M110.01,73 L101.518,73 L101.518,57.842 L109.768,57.842 L109.482,59.58 L103.674,59.58 L103.674,64.2 L108.536,64.2 L108.536,65.982 L103.674,65.982 L103.674,71.174 L110.01,71.174 L110.01,73 Z M132.966,68.842 C132.966,70.954 131.668,72.296 129.908,72.758 C129.226,72.934 128.302,73 127.51,73 L122.89,73 L122.89,57.842 L126.102,57.842 C128.654,57.842 129.336,57.908 130.282,58.414 C131.624,59.118 132.328,60.196 132.328,61.582 C132.328,63.166 131.426,64.376 129.578,64.926 C131.866,65.432 132.966,66.862 132.966,68.842 Z M130.634,68.6 C130.634,67.368 129.952,66.356 129.006,66.136 C128.61,66.048 128.17,66.004 127.422,66.004 L124.98,66.004 L124.98,71.284 L127.972,71.284 C129.226,71.284 130.634,70.536 130.634,68.6 Z M130.04,61.934 C130.04,60.878 129.446,60.042 128.566,59.778 C128.214,59.668 127.796,59.624 127.026,59.624 L124.958,59.624 L124.958,64.244 L127.356,64.244 C128.698,64.244 129.16,64.002 129.6,63.408 C129.886,63.012 130.04,62.44 130.04,61.934 Z M148.888,73 L146.314,73 C145.874,72.142 145.676,71.79 145.06,70.756 C143.894,68.82 143.52,68.182 142.442,66.972 C142.046,66.532 141.716,66.312 141.078,66.29 L141.078,73 L138.966,73 L138.966,57.842 L143.212,57.842 C145.016,57.842 146.072,58.26 146.798,58.942 C147.48,59.58 148.14,60.592 148.14,62.066 C148.14,64.376 146.688,66.224 144.268,66.224 L144.092,66.224 C144.752,66.774 144.95,67.016 145.412,67.632 C145.72,68.05 146.182,68.71 146.688,69.502 L148.888,73 Z M145.918,62.088 C145.918,61.032 145.346,60.196 144.51,59.866 C144.07,59.69 143.454,59.58 142.662,59.58 L141.078,59.58 L141.078,64.86 L142.552,64.86 C143.894,64.86 144.642,64.64 145.17,64.134 C145.632,63.694 145.918,62.968 145.918,62.088 Z M164.216,68.248 C164.216,70.162 164.106,70.624 163.424,71.46 C162.654,72.406 161.4,73.242 159.068,73.242 C156.78,73.242 155.262,72.516 154.492,71.13 C154.096,70.426 154.008,70.008 154.008,68.424 L154.008,57.842 L156.142,57.842 L156.142,67.632 C156.142,68.732 156.252,70.074 156.692,70.58 C157.11,71.064 157.88,71.438 159.09,71.438 C160.234,71.438 161.07,71.086 161.554,70.448 C161.928,69.964 162.104,69.15 162.104,67.94 L162.104,57.842 L164.216,57.842 L164.216,68.248 Z M180.842,73 L178.268,73 L174.858,66.488 L171.58,73 L169.006,73 L173.582,64.838 L169.534,57.842 L172.108,57.842 L174.836,62.99 L177.432,57.842 L179.962,57.842 L176.134,64.706 L180.842,73 Z M194.234,73 L185.742,73 L185.742,57.842 L193.992,57.842 L193.706,59.58 L187.898,59.58 L187.898,64.2 L192.76,64.2 L192.76,65.982 L187.898,65.982 L187.898,71.174 L194.234,71.174 L194.234,73 Z M207.604,71.24 L207.252,73 L199.684,73 L199.684,57.842 L201.84,57.842 L201.84,71.24 L207.604,71.24 Z M220.534,71.24 L220.182,73 L212.614,73 L212.614,57.842 L214.77,57.842 L214.77,71.24 L220.534,71.24 Z M234.036,73 L225.544,73 L225.544,57.842 L233.794,57.842 L233.508,59.58 L227.7,59.58 L227.7,64.2 L232.562,64.2 L232.562,65.982 L227.7,65.982 L227.7,71.174 L234.036,71.174 L234.036,73 Z M249.320001,68.578 C249.320001,70.69 247.582001,73.286 243.600001,73.286 C241.862001,73.286 240.190001,72.846 238.716001,71.944 L239.552001,70.316 C240.872001,71.13 242.126001,71.57 243.644001,71.57 C245.624001,71.57 246.922001,70.558 246.922001,68.93 C246.922001,67.698 246.108001,66.84 244.414001,66.356 L242.830001,65.894 C240.542001,65.234 239.244001,64.134 239.244001,61.978 C239.244001,59.36 241.268001,57.578 244.260001,57.578 C245.932001,57.578 247.560001,58.062 248.902001,59.008 L247.956001,60.504 C246.548001,59.646 245.602001,59.316 244.348001,59.316 C242.654001,59.316 241.598001,60.196 241.598001,61.604 C241.598001,62.682 242.214001,63.298 243.842001,63.782 L245.624001,64.31 C247.648001,64.904 249.320001,66.224 249.320001,68.578 Z" id="université-libre-de" fill="#004D95"></path>
    </g>
</svg>